<mxfile host="app.diagrams.net" agent="Mozilla/5.0 (Windows NT 10.0; Win64; x64) AppleWebKit/537.36 (KHTML, like Gecko) Chrome/128.0.0.0 Safari/537.36 Edg/128.0.0.0" version="24.8.6">
  <diagram id="C5RBs43oDa-KdzZeNtuy" name="Page-1">
    <mxGraphModel dx="1173" dy="770" grid="1" gridSize="10" guides="1" tooltips="1" connect="1" arrows="1" fold="1" page="1" pageScale="1" pageWidth="827" pageHeight="1169" math="0" shadow="0">
      <root>
        <mxCell id="WIyWlLk6GJQsqaUBKTNV-0" />
        <mxCell id="WIyWlLk6GJQsqaUBKTNV-1" parent="WIyWlLk6GJQsqaUBKTNV-0" />
        <mxCell id="KxxKYYn3FA3naR78BUzu-0" value="Object" style="html=1;whiteSpace=wrap;" vertex="1" parent="WIyWlLk6GJQsqaUBKTNV-1">
          <mxGeometry x="340" y="410" width="320" height="430" as="geometry" />
        </mxCell>
        <object label="User" id="KxxKYYn3FA3naR78BUzu-1">
          <mxCell style="shape=umlActor;verticalLabelPosition=bottom;verticalAlign=top;html=1;" vertex="1" parent="WIyWlLk6GJQsqaUBKTNV-1">
            <mxGeometry x="130" y="610" width="60" height="110" as="geometry" />
          </mxCell>
        </object>
        <mxCell id="KxxKYYn3FA3naR78BUzu-2" value="Use voice commands and alerts" style="ellipse;whiteSpace=wrap;html=1;" vertex="1" parent="WIyWlLk6GJQsqaUBKTNV-1">
          <mxGeometry x="430" y="460" width="140" height="70" as="geometry" />
        </mxCell>
        <mxCell id="KxxKYYn3FA3naR78BUzu-3" value="Monitor the home environment" style="ellipse;whiteSpace=wrap;html=1;" vertex="1" parent="WIyWlLk6GJQsqaUBKTNV-1">
          <mxGeometry x="430" y="560" width="140" height="70" as="geometry" />
        </mxCell>
        <mxCell id="KxxKYYn3FA3naR78BUzu-4" value="Manage the health information" style="ellipse;whiteSpace=wrap;html=1;" vertex="1" parent="WIyWlLk6GJQsqaUBKTNV-1">
          <mxGeometry x="430" y="650" width="140" height="70" as="geometry" />
        </mxCell>
        <mxCell id="KxxKYYn3FA3naR78BUzu-5" value="Collect the real-time data" style="ellipse;whiteSpace=wrap;html=1;" vertex="1" parent="WIyWlLk6GJQsqaUBKTNV-1">
          <mxGeometry x="429" y="740" width="140" height="70" as="geometry" />
        </mxCell>
        <mxCell id="KxxKYYn3FA3naR78BUzu-8" value="" style="endArrow=none;html=1;rounded=0;entryX=0;entryY=0.5;entryDx=0;entryDy=0;exitX=0.75;exitY=0.1;exitDx=0;exitDy=0;exitPerimeter=0;" edge="1" parent="WIyWlLk6GJQsqaUBKTNV-1" source="KxxKYYn3FA3naR78BUzu-1" target="KxxKYYn3FA3naR78BUzu-2">
          <mxGeometry width="50" height="50" relative="1" as="geometry">
            <mxPoint x="190" y="650" as="sourcePoint" />
            <mxPoint x="240" y="600" as="targetPoint" />
          </mxGeometry>
        </mxCell>
        <mxCell id="KxxKYYn3FA3naR78BUzu-9" value="" style="endArrow=none;html=1;rounded=0;exitX=0.85;exitY=0.361;exitDx=0;exitDy=0;exitPerimeter=0;" edge="1" parent="WIyWlLk6GJQsqaUBKTNV-1" source="KxxKYYn3FA3naR78BUzu-1" target="KxxKYYn3FA3naR78BUzu-3">
          <mxGeometry width="50" height="50" relative="1" as="geometry">
            <mxPoint x="200" y="650" as="sourcePoint" />
            <mxPoint x="250" y="600" as="targetPoint" />
          </mxGeometry>
        </mxCell>
        <mxCell id="KxxKYYn3FA3naR78BUzu-10" value="" style="endArrow=none;html=1;rounded=0;exitX=0.506;exitY=0.621;exitDx=0;exitDy=0;exitPerimeter=0;" edge="1" parent="WIyWlLk6GJQsqaUBKTNV-1" source="KxxKYYn3FA3naR78BUzu-1" target="KxxKYYn3FA3naR78BUzu-4">
          <mxGeometry width="50" height="50" relative="1" as="geometry">
            <mxPoint x="180" y="700" as="sourcePoint" />
            <mxPoint x="240" y="650" as="targetPoint" />
          </mxGeometry>
        </mxCell>
        <mxCell id="KxxKYYn3FA3naR78BUzu-11" value="" style="endArrow=none;html=1;rounded=0;exitX=0.828;exitY=0.882;exitDx=0;exitDy=0;exitPerimeter=0;entryX=0.031;entryY=0.386;entryDx=0;entryDy=0;entryPerimeter=0;" edge="1" parent="WIyWlLk6GJQsqaUBKTNV-1" source="KxxKYYn3FA3naR78BUzu-1" target="KxxKYYn3FA3naR78BUzu-5">
          <mxGeometry width="50" height="50" relative="1" as="geometry">
            <mxPoint x="190" y="760" as="sourcePoint" />
            <mxPoint x="240" y="710" as="targetPoint" />
          </mxGeometry>
        </mxCell>
      </root>
    </mxGraphModel>
  </diagram>
</mxfile>
